<svg width="58" height="52" viewBox="0 0 58 52" fill="none" xmlns="http://www.w3.org/2000/svg">
<mask id="mask0_177_2466" style="mask-type:luminance" maskUnits="userSpaceOnUse" x="0" y="0" width="37" height="52">
<path d="M0 0.226135H36.4933V51.7461H0V0.226135Z" fill="white"/>
</mask>
<g mask="url(#mask0_177_2466)">
<path d="M18.2501 0.226135C8.18035 0.226135 0.0166016 8.38916 0.0166016 18.4597C0.0166016 36.8004 18.2501 51.7768 18.2501 51.7768C18.2501 51.7768 36.4837 36.8004 36.4837 18.4597C36.4837 8.38916 28.3199 0.226135 18.2501 0.226135ZM18.2501 32.7645C10.5822 32.7645 4.36681 26.5483 4.36681 18.8811C4.36681 11.2132 10.5822 4.9978 18.2501 4.9978C25.9173 4.9978 32.1335 11.2132 32.1335 18.8811C32.1335 26.5491 25.9181 32.7645 18.2501 32.7645Z" fill="#003479"/>
</g>
<path d="M47.2559 40.4404C47.2938 40.4784 47.3339 40.5148 47.3747 40.5484C47.4578 40.6169 47.5468 40.6774 47.6416 40.7292C47.8786 40.8575 48.1506 40.9312 48.4386 40.9312C48.5538 40.9312 48.6668 40.9195 48.7754 40.8969C48.8848 40.875 48.9891 40.8422 49.0897 40.7992C49.2399 40.7357 49.3785 40.6512 49.5024 40.5484C49.875 40.2414 50.112 39.7769 50.112 39.2577C50.112 38.9974 50.0508 38.751 49.9443 38.5315C49.9239 38.4892 49.902 38.4484 49.8787 38.4082C49.7788 38.2405 49.6526 38.0903 49.5032 37.9671C49.3792 37.8643 49.2399 37.7797 49.0897 37.7155C48.9898 37.6732 48.8848 37.6404 48.7754 37.6178C48.6668 37.596 48.5545 37.5843 48.4386 37.5843C48.1506 37.5843 47.8786 37.6572 47.6416 37.7863C47.5468 37.838 47.4578 37.8986 47.3747 37.9671C47.3339 38.0006 47.2938 38.0371 47.2559 38.075C47.067 38.2646 46.9226 38.4987 46.841 38.7604C46.7921 38.9172 46.7651 39.0842 46.7651 39.2577C46.7651 39.5457 46.8388 39.8177 46.9678 40.0547C47.0451 40.1969 47.1421 40.3267 47.2559 40.4404Z" fill="#003479"/>
<mask id="mask1_177_2466" style="mask-type:luminance" maskUnits="userSpaceOnUse" x="26" y="21" width="32" height="31">
<path d="M26.04 21.0533H57.4V51.7462H26.04V21.0533Z" fill="white"/>
</mask>
<g mask="url(#mask1_177_2466)">
<path d="M57.1976 30.7418C56.9985 29.6801 56.0506 28.9087 54.943 28.9087H52.1845C51.2687 28.9087 50.4506 29.4563 50.0999 30.3021L49.9912 30.5661L46.629 24.04C45.9713 22.7625 44.7806 21.8525 43.3624 21.5419C42.9788 21.458 42.324 21.3705 41.3601 21.2743C40.5624 21.1948 39.7595 21.1321 38.9531 21.0833C38.8853 21.8686 38.7883 22.6575 38.6614 23.4501C39.4569 23.5026 40.2481 23.5719 41.0341 23.6594C41.9463 23.7615 42.5617 23.8548 42.9154 23.9445C43.7474 24.1552 44.443 24.7203 44.8236 25.4947L48.3506 32.6704C48.4658 32.906 48.4519 33.1838 48.3134 33.4054C48.1756 33.6278 47.932 33.7627 47.6703 33.7627H35.4057C33.9328 36.9069 32.0224 40.0635 29.7124 43.1697H41.8924C42.3109 43.1697 42.6507 43.5088 42.6507 43.9273C42.6507 44.3459 42.3109 44.6856 41.8924 44.6856H28.5523C27.7137 45.7473 26.8854 46.7295 26.0928 47.6264H49.7739C50.1925 47.6264 50.5315 47.9654 50.5315 48.384C50.5315 48.8025 50.1925 49.1416 49.7739 49.1416H46.9965V49.8977C46.9965 50.9331 47.8394 51.7761 48.8749 51.7761H53.0245C54.06 51.7761 54.9029 50.9339 54.9029 49.8977V39.502C54.9029 37.8905 54.3174 36.336 53.2535 35.1248L52.4959 34.2622L55.6269 33.326C56.736 32.9949 57.4112 31.8837 57.1976 30.7418ZM48.4388 36.0684C50.1976 36.0684 51.6282 37.499 51.6282 39.2577C51.6282 41.0158 50.1976 42.4471 48.4388 42.4471C46.6808 42.4471 45.2502 41.0165 45.2502 39.2577C45.2502 37.499 46.6808 36.0684 48.4388 36.0684Z" fill="#003479"/>
</g>
<path d="M20.1522 9.59155H13.8237V28.1707H17.2005V20.7442H19.8496C23.6886 20.7442 26.2444 18.7958 26.2444 15.0625C26.2444 11.3984 23.5012 9.59155 20.1522 9.59155ZM19.7241 12.2989C21.5821 12.2989 22.826 13.1761 22.826 15.0975C22.826 17.2252 21.6382 18.0535 19.5973 18.0535H17.2005V12.2989H19.7241Z" fill="#003479"/>
</svg>
