<svg width="314" height="337" viewBox="0 0 314 337" fill="none" xmlns="http://www.w3.org/2000/svg">
<mask id="mask0_188_2465" style="mask-type:luminance" maskUnits="userSpaceOnUse" x="24" y="0" width="169" height="237">
<path d="M24.4219 0.401047H192.667V236.401H24.4219V0.401047Z" fill="white"/>
</mask>
<g mask="url(#mask0_188_2465)">
<path d="M108.047 0.401047C61.9063 0.401047 24.5052 37.8021 24.5052 83.9375C24.5052 167.974 108.047 236.589 108.047 236.589C108.047 236.589 191.583 167.974 191.583 83.9375C191.583 37.8021 154.182 0.401047 108.047 0.401047ZM108.047 149.479C72.9167 149.479 44.4323 121 44.4323 85.8698C44.4323 50.7396 72.9167 22.2604 108.047 22.2604C143.177 22.2604 171.656 50.7396 171.656 85.8698C171.656 121 143.177 149.479 108.047 149.479Z" fill="#003479"/>
</g>
<path d="M240.943 184.651C241.115 184.823 241.297 184.99 241.484 185.146C241.865 185.458 242.276 185.734 242.708 185.974C243.797 186.562 245.042 186.896 246.359 186.896C246.891 186.896 247.406 186.844 247.906 186.745C248.401 186.641 248.885 186.49 249.344 186.297C250.031 186.005 250.667 185.615 251.234 185.146C252.943 183.74 254.031 181.609 254.031 179.229C254.031 178.036 253.745 176.911 253.26 175.901C253.167 175.708 253.068 175.521 252.958 175.339C252.5 174.573 251.922 173.88 251.234 173.318C250.667 172.849 250.031 172.458 249.344 172.167C248.885 171.974 248.406 171.823 247.906 171.719C247.406 171.62 246.891 171.562 246.359 171.562C245.042 171.562 243.797 171.901 242.708 172.49C242.276 172.729 241.865 173.005 241.49 173.318C241.297 173.474 241.115 173.641 240.943 173.812C240.073 174.677 239.411 175.755 239.042 176.953C238.813 177.672 238.693 178.438 238.693 179.229C238.693 180.552 239.031 181.797 239.62 182.88C239.974 183.536 240.422 184.13 240.943 184.651Z" fill="#003479"/>
<mask id="mask1_188_2465" style="mask-type:luminance" maskUnits="userSpaceOnUse" x="143" y="94" width="145" height="143">
<path d="M143.333 94.6667H287.333V236.401H143.333V94.6667Z" fill="white"/>
</mask>
<g mask="url(#mask1_188_2465)">
<path d="M286.49 140.214C285.578 135.349 281.234 131.818 276.161 131.818H263.526C259.328 131.818 255.578 134.323 253.974 138.198L253.474 139.406L238.068 109.505C235.052 103.656 229.599 99.4844 223.099 98.0625C221.344 97.6771 218.344 97.2761 213.927 96.8386C210.271 96.474 206.594 96.1823 202.896 95.9583C202.589 99.5573 202.141 103.172 201.562 106.807C205.208 107.047 208.833 107.359 212.432 107.766C216.615 108.234 219.432 108.661 221.052 109.068C224.865 110.036 228.052 112.625 229.797 116.172L245.958 149.052C246.484 150.125 246.422 151.401 245.786 152.417C245.151 153.438 244.036 154.057 242.839 154.057H186.646C179.896 168.458 171.141 182.922 160.562 197.156H216.365C218.286 197.156 219.839 198.708 219.839 200.625C219.839 202.547 218.286 204.099 216.365 204.099H155.245C151.406 208.964 147.609 213.464 143.974 217.573H252.479C254.396 217.573 255.948 219.125 255.948 221.047C255.948 222.964 254.396 224.516 252.479 224.516H239.755V227.979C239.755 232.724 243.615 236.589 248.359 236.589H267.37C272.115 236.589 275.974 232.729 275.974 227.979V180.349C275.974 172.964 273.292 165.844 268.422 160.297L264.948 156.344L279.292 152.057C284.375 150.536 287.469 145.448 286.49 140.214ZM246.359 164.62C254.417 164.62 260.974 171.177 260.974 179.229C260.974 187.286 254.417 193.844 246.359 193.844C238.302 193.844 231.75 187.286 231.75 179.229C231.75 171.172 238.302 164.62 246.359 164.62Z" fill="#003479"/>
</g>
<mask id="mask2_188_2465" style="mask-type:luminance" maskUnits="userSpaceOnUse" x="24" y="0" width="169" height="237">
<path d="M24.4219 0.401047H192.667V236.401H24.4219V0.401047Z" fill="white"/>
</mask>
<g mask="url(#mask2_188_2465)">
<path d="M108.047 0.401047C61.9063 0.401047 24.5052 37.8021 24.5052 83.9375C24.5052 167.974 108.047 236.589 108.047 236.589C108.047 236.589 191.583 167.974 191.583 83.9375C191.583 37.8021 154.182 0.401047 108.047 0.401047ZM108.047 149.479C72.9167 149.479 44.4323 121 44.4323 85.8698C44.4323 50.7396 72.9167 22.2604 108.047 22.2604C143.177 22.2604 171.656 50.7396 171.656 85.8698C171.656 121 143.177 149.479 108.047 149.479Z" fill="#003479"/>
</g>
<mask id="mask3_188_2465" style="mask-type:luminance" maskUnits="userSpaceOnUse" x="143" y="94" width="145" height="143">
<path d="M143.333 94.6667H287.333V236.401H143.333V94.6667Z" fill="white"/>
</mask>
<g mask="url(#mask3_188_2465)">
<path d="M286.49 140.214C285.578 135.349 281.234 131.818 276.161 131.818H263.526C259.328 131.818 255.578 134.323 253.974 138.198L253.474 139.406L238.068 109.505C235.052 103.656 229.599 99.4844 223.099 98.0625C221.344 97.6771 218.344 97.2761 213.927 96.8386C210.271 96.474 206.594 96.1823 202.896 95.9583C202.589 99.5573 202.141 103.172 201.562 106.807C205.208 107.047 208.833 107.359 212.432 107.766C216.615 108.234 219.432 108.661 221.052 109.068C224.865 110.036 228.052 112.625 229.797 116.172L245.958 149.052C246.484 150.125 246.422 151.401 245.786 152.417C245.151 153.438 244.036 154.057 242.839 154.057H186.646C179.896 168.458 171.141 182.922 160.562 197.156H216.365C218.286 197.156 219.839 198.708 219.839 200.625C219.839 202.547 218.286 204.099 216.365 204.099H155.245C151.406 208.964 147.609 213.464 143.974 217.573H252.479C254.396 217.573 255.948 219.125 255.948 221.047C255.948 222.964 254.396 224.516 252.479 224.516H239.755V227.979C239.755 232.724 243.615 236.589 248.359 236.589H267.37C272.115 236.589 275.974 232.729 275.974 227.979V180.349C275.974 172.964 273.292 165.844 268.422 160.297L264.948 156.344L279.292 152.057C284.375 150.536 287.469 145.448 286.49 140.214ZM246.359 164.62C254.417 164.62 260.974 171.177 260.974 179.229C260.974 187.286 254.417 193.844 246.359 193.844C238.302 193.844 231.75 187.286 231.75 179.229C231.75 171.172 238.302 164.62 246.359 164.62Z" fill="#003479"/>
</g>
<path d="M116.755 43.3073H87.7604V128.432H103.234V94.4063H115.375C132.964 94.4063 144.672 85.4792 144.672 68.375C144.672 51.5885 132.104 43.3073 116.755 43.3073ZM114.797 55.7135C123.307 55.7135 129.01 59.7292 129.01 68.5365C129.01 78.2865 123.568 82.0781 114.214 82.0781H103.234V55.7135H114.797Z" fill="#003479"/>
<path d="M10.8836 259.936C13.0503 259.936 15.0295 260.269 16.8211 260.936C18.6232 261.592 20.1961 262.519 21.5295 263.727C22.8628 264.925 23.894 266.331 24.6336 267.956C25.368 269.581 25.7378 271.363 25.7378 273.29C25.7378 275.238 25.368 277.019 24.6336 278.644C23.894 280.258 22.8628 281.654 21.5295 282.831C20.1961 284.014 18.6232 284.925 16.8211 285.561C15.0295 286.201 13.0503 286.519 10.8836 286.519H6.44613V292.686C6.44613 292.967 6.35238 293.201 6.17529 293.394C6.00863 293.576 5.75863 293.665 5.42529 293.665H1.17529C0.852377 293.665 0.602377 293.581 0.425293 293.415C0.258626 293.238 0.175293 292.993 0.175293 292.686V260.915C0.175293 260.623 0.263834 260.389 0.446126 260.206C0.623209 260.029 0.868001 259.936 1.17529 259.936H3.44613C3.90446 259.936 4.32113 259.936 4.69613 259.936C5.07113 259.936 5.34717 259.936 5.52946 259.936H10.8836ZM10.467 281.019C11.7847 281.019 12.9878 280.842 14.0711 280.477C15.1649 280.102 16.118 279.571 16.9253 278.873C17.7274 278.18 18.3524 277.363 18.8003 276.415C19.243 275.456 19.467 274.404 19.467 273.248C19.467 272.113 19.243 271.071 18.8003 270.123C18.3524 269.18 17.7274 268.363 16.9253 267.665C16.118 266.956 15.1649 266.409 14.0711 266.019C12.9878 265.633 11.7847 265.436 10.467 265.436H6.44613V281.019H10.467Z" fill="#003479"/>
<path d="M64.8156 292.561C64.951 292.883 64.951 293.154 64.8156 293.373C64.6906 293.581 64.4406 293.686 64.0656 293.686H59.2948C59.0448 293.686 58.8208 293.602 58.6281 293.436C58.4302 293.269 58.2792 293.071 58.1698 292.831L56.8156 289.54H41.3364L39.9823 292.811C39.8677 293.05 39.7167 293.248 39.5239 293.415C39.3417 293.581 39.1073 293.665 38.8156 293.665H34.0864C33.7114 293.665 33.451 293.561 33.3156 293.352C33.175 293.144 33.175 292.873 33.3156 292.54L47.6698 260.373C47.7948 260.097 47.9667 259.883 48.1906 259.727C48.425 259.576 48.6594 259.498 48.8989 259.498H49.1906C49.451 259.498 49.6906 259.581 49.8989 259.748C50.1177 259.904 50.2844 260.118 50.3989 260.394L64.8156 292.561ZM43.5239 284.165H54.6073L49.0656 270.748L43.5239 284.165Z" fill="#003479"/>
<path d="M95.6791 283.686L100.2 292.519C100.367 292.842 100.387 293.113 100.262 293.331C100.148 293.555 99.9135 293.665 99.5541 293.665H94.6791C94.4708 293.665 94.2521 293.592 94.0333 293.436C93.825 293.284 93.6583 293.092 93.5333 292.852L90.0541 285.706C89.6896 285.764 89.3146 285.805 88.9291 285.831C88.5385 285.847 88.1479 285.852 87.7625 285.852H80.7833V292.686C80.7833 292.993 80.6844 293.238 80.4916 293.415C80.2937 293.581 80.0541 293.665 79.7625 293.665H75.5125C75.2208 293.665 74.976 293.581 74.7833 293.415C74.601 293.238 74.5125 292.993 74.5125 292.686V260.894C74.5125 260.618 74.601 260.389 74.7833 260.206C74.976 260.029 75.2208 259.936 75.5125 259.936H76.6166C77.2677 259.936 77.9083 259.936 78.5333 259.936C79.1583 259.936 79.601 259.936 79.8666 259.936H87.7625C89.7312 259.936 91.5437 260.264 93.2 260.915C94.8666 261.555 96.3041 262.456 97.5125 263.623C98.7312 264.79 99.6791 266.175 100.346 267.769C101.023 269.368 101.367 271.118 101.367 273.019C101.367 275.311 100.851 277.383 99.825 279.227C98.8094 281.061 97.4291 282.55 95.6791 283.686ZM87.3458 280.623C88.8562 280.623 90.2 280.3 91.3666 279.644C92.5333 278.993 93.45 278.092 94.1166 276.936C94.7833 275.784 95.1166 274.456 95.1166 272.956C95.1166 271.873 94.9187 270.873 94.5333 269.956C94.1427 269.04 93.601 268.243 92.9083 267.561C92.2104 266.883 91.3875 266.352 90.4291 265.977C89.4812 265.602 88.4552 265.415 87.3458 265.415H80.7833V280.623H87.3458Z" fill="#003479"/>
<path d="M142.285 292.477C142.477 292.8 142.524 293.081 142.43 293.331C142.332 293.571 142.118 293.686 141.785 293.686H136.41C136.019 293.686 135.691 293.519 135.43 293.186L124.847 274.936L118.972 280.706V292.936C118.972 293.425 118.727 293.665 118.243 293.665H113.451C112.951 293.665 112.701 293.425 112.701 292.936V260.644C112.701 260.144 112.951 259.894 113.451 259.894H118.243C118.727 259.894 118.972 260.144 118.972 260.644V272.748L131.535 260.602C131.785 260.342 132.014 260.165 132.222 260.081C132.43 259.988 132.68 259.936 132.972 259.936H138.451C138.826 259.936 139.055 260.092 139.139 260.394C139.233 260.686 139.144 260.956 138.868 261.206L129.389 270.519L142.285 292.477Z" fill="#003479"/>
<path d="M206.664 292.644C206.706 293.008 206.633 293.269 206.456 293.436C206.273 293.592 206.023 293.665 205.706 293.665H201.393C201.086 293.665 200.841 293.597 200.664 293.456C200.497 293.305 200.398 293.055 200.372 292.706L198.768 276.248L188.768 293.248C188.57 293.555 188.404 293.774 188.268 293.915C188.143 294.05 187.945 294.123 187.685 294.123H187.664C187.383 294.123 187.174 294.05 187.039 293.915C186.914 293.774 186.753 293.555 186.56 293.248L176.56 276.269L174.956 292.706C174.898 293.055 174.789 293.305 174.622 293.456C174.466 293.597 174.237 293.665 173.935 293.665H169.622C169.299 293.665 169.044 293.592 168.851 293.436C168.669 293.269 168.601 293.008 168.643 292.644L171.914 260.248C171.956 259.706 172.232 259.436 172.747 259.436H172.872C173.148 259.436 173.336 259.508 173.435 259.644C173.544 259.784 173.669 259.972 173.81 260.206L187.664 283.706L201.497 260.206C201.648 259.972 201.773 259.784 201.872 259.644C201.982 259.508 202.174 259.436 202.456 259.436H202.539C203.049 259.436 203.341 259.706 203.414 260.248L206.664 292.644Z" fill="#003479"/>
<path d="M245.935 292.561C246.07 292.883 246.07 293.154 245.935 293.373C245.81 293.581 245.56 293.686 245.185 293.686H240.414C240.164 293.686 239.94 293.602 239.747 293.436C239.549 293.269 239.398 293.071 239.289 292.831L237.935 289.54H222.455L221.101 292.811C220.987 293.05 220.836 293.248 220.643 293.415C220.461 293.581 220.226 293.665 219.935 293.665H215.205C214.83 293.665 214.57 293.561 214.435 293.352C214.294 293.144 214.294 292.873 214.435 292.54L228.789 260.373C228.914 260.097 229.086 259.883 229.31 259.727C229.544 259.576 229.778 259.498 230.018 259.498H230.31C230.57 259.498 230.81 259.581 231.018 259.748C231.237 259.904 231.403 260.118 231.518 260.394L245.935 292.561ZM224.643 284.165H235.726L230.185 270.748L224.643 284.165Z" fill="#003479"/>
<path d="M252.923 264.415V260.915C252.923 260.264 253.246 259.936 253.902 259.936H276.986C277.288 259.936 277.527 260.029 277.694 260.206C277.861 260.389 277.944 260.623 277.944 260.915V264.415C277.944 265.081 277.621 265.415 276.986 265.415H268.548V292.686C268.548 293.342 268.215 293.665 267.548 293.665H263.256C262.6 293.665 262.277 293.342 262.277 292.686V265.415H253.902C253.595 265.415 253.35 265.331 253.173 265.165C253.006 264.998 252.923 264.748 252.923 264.415Z" fill="#003479"/>
<path d="M312.206 287.706C312.622 287.706 312.945 287.821 313.185 288.04C313.435 288.264 313.56 288.561 313.56 288.936V292.665C313.56 292.956 313.466 293.196 313.289 293.373C313.107 293.555 312.857 293.644 312.539 293.644H288.81C288.143 293.644 287.81 293.321 287.81 292.665V260.936C287.81 260.269 288.143 259.936 288.81 259.936H312.081C312.398 259.936 312.648 260.029 312.831 260.206C313.008 260.389 313.101 260.623 313.101 260.915V264.873C313.101 265.555 312.758 265.894 312.081 265.894H294.081V275.186H308.164C308.539 275.186 308.831 275.279 309.039 275.456C309.247 275.639 309.351 275.894 309.351 276.227V279.936C309.351 280.227 309.247 280.472 309.039 280.665C308.831 280.847 308.539 280.936 308.164 280.936H294.081V287.706H312.206Z" fill="#003479"/>
<path d="M29.2436 328.15V327.191C29.2436 327.014 29.3321 326.92 29.5144 326.92H35.8269C35.9103 326.92 35.9728 326.952 36.0144 327.004C36.0561 327.045 36.0769 327.108 36.0769 327.191V328.15C36.0769 328.332 35.9936 328.42 35.8269 328.42H33.5144V335.858C33.5144 336.04 33.4207 336.129 33.2436 336.129H32.0769C31.8946 336.129 31.8061 336.04 31.8061 335.858V328.42H29.5144C29.4311 328.42 29.3582 328.4 29.3061 328.358C29.2644 328.306 29.2436 328.233 29.2436 328.15Z" fill="#545454"/>
<path d="M53.2412 333.4L54.4912 335.816C54.5328 335.915 54.5328 335.993 54.4912 336.045C54.4599 336.103 54.3974 336.129 54.3037 336.129H52.9703C52.913 336.129 52.8558 336.108 52.8037 336.066C52.7464 336.025 52.6995 335.978 52.6578 335.92L51.7203 333.962C51.6058 333.978 51.4964 333.993 51.387 334.004C51.288 334.004 51.1839 334.004 51.0745 334.004H49.1787V335.858C49.1787 335.941 49.1474 336.014 49.0953 336.066C49.038 336.108 48.9755 336.129 48.9078 336.129H47.7412C47.6578 336.129 47.5849 336.108 47.5328 336.066C47.4912 336.014 47.4703 335.941 47.4703 335.858V327.17C47.4703 327.103 47.4912 327.045 47.5328 327.004C47.5849 326.952 47.6578 326.92 47.7412 326.92H48.0328C48.2099 326.92 48.387 326.92 48.5537 326.92C48.7308 326.92 48.8558 326.92 48.9287 326.92H51.0745C51.6162 326.92 52.1162 327.014 52.5745 327.191C53.0328 327.358 53.4287 327.603 53.762 327.92C54.0953 328.243 54.3505 328.624 54.5328 329.066C54.7099 329.499 54.8037 329.973 54.8037 330.483C54.8037 331.108 54.663 331.681 54.387 332.191C54.1058 332.691 53.7255 333.098 53.2412 333.4ZM50.9703 332.566C51.387 332.566 51.7516 332.483 52.0745 332.316C52.3922 332.139 52.6422 331.889 52.8245 331.566C53.0016 331.249 53.0953 330.889 53.0953 330.483C53.0953 330.181 53.038 329.9 52.9287 329.65C52.8297 329.4 52.6839 329.186 52.4912 329.004C52.2933 328.811 52.0641 328.665 51.8037 328.566C51.5537 328.473 51.2724 328.42 50.9703 328.42H49.1787V332.566H50.9703Z" fill="#545454"/>
<path d="M74.4012 335.837C74.4429 335.92 74.4429 335.999 74.4012 336.066C74.37 336.124 74.3023 336.15 74.1929 336.15H72.9012C72.8283 336.15 72.7658 336.129 72.7137 336.087C72.6564 336.035 72.6148 335.973 72.5887 335.9L72.2137 335.004H67.9846L67.6096 335.9C67.5783 335.973 67.5366 336.025 67.4846 336.066C67.4429 336.108 67.3804 336.129 67.2971 336.129H66.0054C65.9064 336.129 65.8387 336.103 65.7971 336.045C65.7554 335.993 65.7554 335.915 65.7971 335.816L69.7137 327.025C69.7554 326.957 69.8023 326.9 69.8596 326.858C69.9273 326.816 69.9898 326.795 70.0471 326.795H70.1304C70.1981 326.795 70.2606 326.827 70.3179 326.879C70.3856 326.92 70.4325 326.978 70.4637 327.045L74.4012 335.837ZM68.5887 333.545H71.6096L70.1096 329.879L68.5887 333.545Z" fill="#545454"/>
<path d="M91.8268 333.92C91.8945 333.868 91.9726 333.837 92.056 333.837C92.1393 333.837 92.2018 333.868 92.2435 333.92L92.931 334.983C92.957 335.025 92.957 335.082 92.931 335.15C92.9153 335.223 92.8737 335.285 92.806 335.337C92.556 335.519 92.2695 335.686 91.9518 335.837C91.6445 335.978 91.3268 336.082 90.9935 336.15C90.6601 336.233 90.332 336.275 90.0143 336.275C89.4726 336.275 88.957 336.197 88.4726 336.045C87.9831 335.894 87.5403 335.67 87.1393 335.379C86.7487 335.087 86.3997 334.749 86.0976 334.358C85.806 333.973 85.5768 333.54 85.4101 333.066C85.2539 332.582 85.181 332.066 85.181 331.525C85.181 330.999 85.2539 330.499 85.4101 330.025C85.5768 329.54 85.806 329.103 86.0976 328.712C86.3997 328.311 86.7487 327.973 87.1393 327.691C87.5403 327.4 87.9831 327.181 88.4726 327.025C88.957 326.858 89.4726 326.775 90.0143 326.775C90.3164 326.775 90.6393 326.816 90.9726 326.9C91.3164 326.973 91.6497 327.082 91.9726 327.233C92.2903 327.374 92.5768 327.545 92.8268 327.754C92.9101 327.811 92.9518 327.874 92.9518 327.941C92.9622 327.999 92.957 328.045 92.931 328.087L92.2435 329.129C92.2018 329.186 92.1445 329.223 92.0768 329.233C92.0039 329.249 91.931 329.223 91.8476 329.15C91.582 328.931 91.2851 328.764 90.9518 328.65C90.6289 328.54 90.3164 328.483 90.0143 328.483C89.582 328.483 89.1706 328.561 88.7851 328.712C88.4101 328.868 88.0768 329.087 87.7851 329.379C87.5039 329.66 87.2851 329.983 87.1185 330.358C86.9622 330.723 86.8893 331.108 86.8893 331.525C86.8893 331.957 86.9726 332.358 87.1393 332.733C87.306 333.098 87.5247 333.415 87.806 333.691C88.0976 333.973 88.431 334.186 88.806 334.337C89.181 334.493 89.582 334.566 90.0143 334.566C90.306 334.566 90.6185 334.514 90.9518 334.4C91.2851 334.29 91.5768 334.129 91.8268 333.92Z" fill="#545454"/>
<path d="M112.679 335.816C112.731 335.9 112.746 335.978 112.72 336.045C112.689 336.118 112.627 336.15 112.533 336.15H111.075C110.96 336.15 110.871 336.103 110.804 336.004L107.908 331.025L106.304 332.587V335.941C106.304 336.066 106.231 336.129 106.095 336.129H104.804C104.663 336.129 104.595 336.066 104.595 335.941V327.108C104.595 326.973 104.663 326.9 104.804 326.9H106.095C106.231 326.9 106.304 326.973 106.304 327.108V330.42L109.741 327.108C109.809 327.025 109.871 326.978 109.929 326.962C109.981 326.936 110.054 326.92 110.137 326.92H111.637C111.731 326.92 111.788 326.962 111.804 327.045C111.83 327.129 111.809 327.207 111.741 327.275L109.158 329.816L112.679 335.816Z" fill="#545454"/>
<path d="M124.527 336.316C124.345 336.316 124.178 336.275 124.027 336.191C123.887 336.108 123.777 335.999 123.694 335.858C123.611 335.707 123.569 335.54 123.569 335.358C123.569 335.181 123.611 335.019 123.694 334.879C123.777 334.743 123.887 334.629 124.027 334.545C124.178 334.452 124.345 334.4 124.527 334.4C124.694 334.4 124.845 334.452 124.986 334.545C125.121 334.629 125.236 334.743 125.319 334.879C125.413 335.019 125.465 335.181 125.465 335.358C125.465 335.54 125.413 335.707 125.319 335.858C125.236 335.999 125.121 336.108 124.986 336.191C124.845 336.275 124.694 336.316 124.527 336.316Z" fill="#545454"/>
<path d="M153.963 326.92C154.557 326.92 155.099 327.014 155.588 327.191C156.088 327.374 156.515 327.629 156.88 327.962C157.239 328.285 157.515 328.665 157.713 329.108C157.922 329.556 158.026 330.04 158.026 330.566C158.026 331.098 157.922 331.582 157.713 332.025C157.515 332.473 157.239 332.853 156.88 333.17C156.515 333.493 156.088 333.743 155.588 333.92C155.099 334.103 154.557 334.191 153.963 334.191H152.755V335.858C152.755 335.941 152.724 336.014 152.672 336.066C152.63 336.108 152.567 336.129 152.484 336.129H151.317C151.234 336.129 151.161 336.108 151.109 336.066C151.067 336.014 151.047 335.941 151.047 335.858V327.191C151.047 327.108 151.067 327.045 151.109 327.004C151.161 326.952 151.234 326.92 151.317 326.92H151.942C152.067 326.92 152.177 326.92 152.276 326.92C152.369 326.92 152.448 326.92 152.505 326.92H153.963ZM153.859 332.67C154.218 332.67 154.547 332.624 154.838 332.525C155.14 332.431 155.401 332.29 155.609 332.108C155.828 331.915 156.005 331.686 156.13 331.42C156.255 331.16 156.317 330.874 156.317 330.566C156.317 330.249 156.255 329.962 156.13 329.712C156.005 329.452 155.828 329.223 155.609 329.025C155.401 328.832 155.14 328.686 154.838 328.587C154.547 328.478 154.218 328.42 153.859 328.42H152.755V332.67H153.859Z" fill="#545454"/>
<path d="M177.384 335.837C177.425 335.92 177.425 335.999 177.384 336.066C177.353 336.124 177.285 336.15 177.175 336.15H175.884C175.811 336.15 175.748 336.129 175.696 336.087C175.639 336.035 175.597 335.973 175.571 335.9L175.196 335.004H170.967L170.592 335.9C170.561 335.973 170.519 336.025 170.467 336.066C170.425 336.108 170.363 336.129 170.28 336.129H168.988C168.889 336.129 168.821 336.103 168.78 336.045C168.738 335.993 168.738 335.915 168.78 335.816L172.696 327.025C172.738 326.957 172.785 326.9 172.842 326.858C172.91 326.816 172.972 326.795 173.03 326.795H173.113C173.181 326.795 173.243 326.827 173.3 326.879C173.368 326.92 173.415 326.978 173.446 327.045L177.384 335.837ZM171.571 333.545H174.592L173.092 329.879L171.571 333.545Z" fill="#545454"/>
<path d="M194.497 333.4L195.747 335.816C195.789 335.915 195.789 335.993 195.747 336.045C195.716 336.103 195.653 336.129 195.559 336.129H194.226C194.169 336.129 194.111 336.108 194.059 336.066C194.002 336.025 193.955 335.978 193.914 335.92L192.976 333.962C192.861 333.978 192.752 333.993 192.643 334.004C192.544 334.004 192.44 334.004 192.33 334.004H190.434V335.858C190.434 335.941 190.403 336.014 190.351 336.066C190.294 336.108 190.231 336.129 190.164 336.129H188.997C188.914 336.129 188.841 336.108 188.789 336.066C188.747 336.014 188.726 335.941 188.726 335.858V327.17C188.726 327.103 188.747 327.045 188.789 327.004C188.841 326.952 188.914 326.92 188.997 326.92H189.289C189.466 326.92 189.643 326.92 189.809 326.92C189.986 326.92 190.111 326.92 190.184 326.92H192.33C192.872 326.92 193.372 327.014 193.83 327.191C194.289 327.358 194.684 327.603 195.018 327.92C195.351 328.243 195.606 328.624 195.789 329.066C195.966 329.499 196.059 329.973 196.059 330.483C196.059 331.108 195.919 331.681 195.643 332.191C195.361 332.691 194.981 333.098 194.497 333.4ZM192.226 332.566C192.643 332.566 193.007 332.483 193.33 332.316C193.648 332.139 193.898 331.889 194.08 331.566C194.257 331.249 194.351 330.889 194.351 330.483C194.351 330.181 194.294 329.9 194.184 329.65C194.085 329.4 193.94 329.186 193.747 329.004C193.549 328.811 193.32 328.665 193.059 328.566C192.809 328.473 192.528 328.42 192.226 328.42H190.434V332.566H192.226Z" fill="#545454"/>
<path d="M215.928 335.816C215.98 335.9 215.995 335.978 215.969 336.045C215.938 336.118 215.876 336.15 215.782 336.15H214.324C214.209 336.15 214.12 336.103 214.053 336.004L211.157 331.025L209.553 332.587V335.941C209.553 336.066 209.48 336.129 209.344 336.129H208.053C207.912 336.129 207.844 336.066 207.844 335.941V327.108C207.844 326.973 207.912 326.9 208.053 326.9H209.344C209.48 326.9 209.553 326.973 209.553 327.108V330.42L212.99 327.108C213.058 327.025 213.12 326.978 213.178 326.962C213.23 326.936 213.303 326.92 213.386 326.92H214.886C214.98 326.92 215.037 326.962 215.053 327.045C215.079 327.129 215.058 327.207 214.99 327.275L212.407 329.816L215.928 335.816Z" fill="#545454"/>
<path d="M227.776 336.316C227.594 336.316 227.427 336.275 227.276 336.191C227.136 336.108 227.026 335.999 226.943 335.858C226.86 335.707 226.818 335.54 226.818 335.358C226.818 335.181 226.86 335.019 226.943 334.879C227.026 334.743 227.136 334.629 227.276 334.545C227.427 334.452 227.594 334.4 227.776 334.4C227.943 334.4 228.094 334.452 228.235 334.545C228.37 334.629 228.485 334.743 228.568 334.879C228.662 335.019 228.714 335.181 228.714 335.358C228.714 335.54 228.662 335.707 228.568 335.858C228.485 335.999 228.37 336.108 228.235 336.191C228.094 336.275 227.943 336.316 227.776 336.316Z" fill="#545454"/>
<path d="M261.525 331.441C261.65 331.441 261.712 331.514 261.712 331.65V335.108C261.712 335.165 261.697 335.223 261.671 335.275C261.655 335.332 261.619 335.374 261.566 335.4C261.4 335.525 261.197 335.644 260.962 335.754C260.723 335.853 260.468 335.941 260.191 336.025C259.926 336.108 259.65 336.17 259.358 336.212C259.077 336.254 258.816 336.275 258.566 336.275C258.025 336.275 257.509 336.197 257.025 336.045C256.535 335.894 256.093 335.67 255.691 335.379C255.285 335.087 254.941 334.749 254.65 334.358C254.358 333.973 254.129 333.54 253.962 333.066C253.806 332.582 253.733 332.066 253.733 331.525C253.733 330.999 253.806 330.499 253.962 330.025C254.129 329.54 254.358 329.103 254.65 328.712C254.941 328.311 255.285 327.973 255.691 327.691C256.093 327.4 256.535 327.181 257.025 327.025C257.509 326.858 258.025 326.775 258.566 326.775C258.869 326.775 259.191 326.811 259.525 326.879C259.869 326.952 260.202 327.056 260.525 327.191C260.843 327.332 261.129 327.504 261.379 327.712C261.447 327.769 261.483 327.832 261.483 327.9C261.494 327.973 261.483 328.035 261.441 328.087L260.775 329.108C260.733 329.165 260.676 329.202 260.608 329.212C260.535 329.212 260.473 329.186 260.421 329.129C260.238 328.978 260.035 328.853 259.816 328.754C259.608 328.66 259.389 328.587 259.171 328.545C258.962 328.504 258.759 328.483 258.566 328.483C258.119 328.483 257.712 328.561 257.337 328.712C256.962 328.868 256.634 329.082 256.358 329.358C256.077 329.639 255.858 329.962 255.691 330.337C255.535 330.702 255.462 331.098 255.462 331.525C255.462 331.957 255.535 332.358 255.691 332.733C255.843 333.108 256.056 333.441 256.337 333.733C256.613 334.014 256.941 334.233 257.316 334.4C257.691 334.566 258.108 334.65 258.566 334.65C258.718 334.65 258.889 334.629 259.087 334.587C259.28 334.545 259.462 334.493 259.629 334.42C259.806 334.353 259.962 334.275 260.087 334.191V332.879H258.525C258.384 332.879 258.316 332.811 258.316 332.67V331.65C258.316 331.514 258.384 331.441 258.525 331.441H261.525Z" fill="#545454"/>
<path d="M272.985 331.545C272.985 331.004 273.058 330.499 273.214 330.025C273.381 329.54 273.61 329.103 273.902 328.712C274.193 328.327 274.532 327.983 274.922 327.691C275.323 327.4 275.761 327.181 276.235 327.025C276.719 326.858 277.235 326.775 277.777 326.775C278.303 326.775 278.803 326.858 279.277 327.025C279.761 327.181 280.198 327.4 280.589 327.691C280.99 327.983 281.339 328.327 281.631 328.712C281.922 329.103 282.141 329.54 282.297 330.025C282.464 330.499 282.547 331.004 282.547 331.545C282.547 332.077 282.464 332.582 282.297 333.066C282.141 333.54 281.922 333.973 281.631 334.358C281.339 334.749 280.99 335.087 280.589 335.379C280.198 335.67 279.761 335.894 279.277 336.045C278.803 336.197 278.303 336.275 277.777 336.275C277.235 336.275 276.719 336.197 276.235 336.045C275.761 335.894 275.323 335.67 274.922 335.379C274.532 335.087 274.193 334.749 273.902 334.358C273.61 333.973 273.381 333.54 273.214 333.066C273.058 332.582 272.985 332.077 272.985 331.545ZM274.693 331.545C274.693 331.978 274.766 332.374 274.922 332.733C275.089 333.098 275.308 333.415 275.589 333.691C275.865 333.973 276.193 334.186 276.568 334.337C276.943 334.493 277.344 334.566 277.777 334.566C278.204 334.566 278.599 334.493 278.964 334.337C279.339 334.186 279.662 333.973 279.943 333.691C280.219 333.415 280.433 333.098 280.589 332.733C280.756 332.374 280.839 331.978 280.839 331.545C280.839 331.118 280.756 330.712 280.589 330.337C280.433 329.962 280.219 329.639 279.943 329.358C279.662 329.082 279.339 328.868 278.964 328.712C278.589 328.561 278.193 328.483 277.777 328.483C277.344 328.483 276.943 328.561 276.568 328.712C276.193 328.868 275.865 329.082 275.589 329.358C275.308 329.639 275.089 329.962 274.922 330.337C274.766 330.712 274.693 331.118 274.693 331.545Z" fill="#545454"/>
</svg>
